<mxfile host="app.diagrams.net" modified="2023-04-05T01:58:57.662Z" agent="Mozilla/5.0 (Windows NT 10.0; Win64; x64) AppleWebKit/537.36 (KHTML, like Gecko) Chrome/111.0.0.0 Safari/537.36" etag="V98hHjcGF0c3j-rFwjQo" version="21.1.4" type="device">
  <diagram name="페이지-1" id="fc6EaRWhR1B18lbpp4zC">
    <mxGraphModel dx="1434" dy="764" grid="1" gridSize="10" guides="1" tooltips="1" connect="1" arrows="1" fold="1" page="1" pageScale="1" pageWidth="827" pageHeight="1169" math="0" shadow="0">
      <root>
        <mxCell id="0" />
        <mxCell id="1" parent="0" />
        <mxCell id="TVoPqE0YGhgHEJRn8iUE-7" style="edgeStyle=orthogonalEdgeStyle;rounded=0;orthogonalLoop=1;jettySize=auto;html=1;entryX=0.5;entryY=0;entryDx=0;entryDy=0;entryPerimeter=0;" edge="1" parent="1" source="TVoPqE0YGhgHEJRn8iUE-1" target="TVoPqE0YGhgHEJRn8iUE-2">
          <mxGeometry relative="1" as="geometry" />
        </mxCell>
        <mxCell id="TVoPqE0YGhgHEJRn8iUE-1" value="start" style="strokeWidth=2;html=1;shape=mxgraph.flowchart.start_2;whiteSpace=wrap;" vertex="1" parent="1">
          <mxGeometry x="150" y="60" width="100" height="100" as="geometry" />
        </mxCell>
        <mxCell id="TVoPqE0YGhgHEJRn8iUE-27" style="edgeStyle=orthogonalEdgeStyle;rounded=0;orthogonalLoop=1;jettySize=auto;html=1;entryX=0.5;entryY=0;entryDx=0;entryDy=0;entryPerimeter=0;" edge="1" parent="1" source="TVoPqE0YGhgHEJRn8iUE-2" target="TVoPqE0YGhgHEJRn8iUE-19">
          <mxGeometry relative="1" as="geometry" />
        </mxCell>
        <mxCell id="TVoPqE0YGhgHEJRn8iUE-29" style="edgeStyle=orthogonalEdgeStyle;rounded=0;orthogonalLoop=1;jettySize=auto;html=1;entryX=0.5;entryY=0;entryDx=0;entryDy=0;" edge="1" parent="1" source="TVoPqE0YGhgHEJRn8iUE-2" target="TVoPqE0YGhgHEJRn8iUE-8">
          <mxGeometry relative="1" as="geometry" />
        </mxCell>
        <mxCell id="TVoPqE0YGhgHEJRn8iUE-2" value="user_choice&lt;br&gt;== 1" style="strokeWidth=2;html=1;shape=mxgraph.flowchart.decision;whiteSpace=wrap;" vertex="1" parent="1">
          <mxGeometry x="160" y="200" width="80" height="80" as="geometry" />
        </mxCell>
        <mxCell id="TVoPqE0YGhgHEJRn8iUE-41" style="edgeStyle=orthogonalEdgeStyle;rounded=0;orthogonalLoop=1;jettySize=auto;html=1;entryX=0.455;entryY=1.037;entryDx=0;entryDy=0;entryPerimeter=0;" edge="1" parent="1" source="TVoPqE0YGhgHEJRn8iUE-4" target="TVoPqE0YGhgHEJRn8iUE-40">
          <mxGeometry relative="1" as="geometry" />
        </mxCell>
        <mxCell id="TVoPqE0YGhgHEJRn8iUE-4" value="&lt;br&gt;SERVER" style="strokeWidth=2;html=1;shape=mxgraph.flowchart.database;whiteSpace=wrap;" vertex="1" parent="1">
          <mxGeometry x="150" y="650" width="100" height="100" as="geometry" />
        </mxCell>
        <mxCell id="TVoPqE0YGhgHEJRn8iUE-34" style="edgeStyle=orthogonalEdgeStyle;rounded=0;orthogonalLoop=1;jettySize=auto;html=1;entryX=0.5;entryY=0;entryDx=0;entryDy=0;entryPerimeter=0;" edge="1" parent="1" source="TVoPqE0YGhgHEJRn8iUE-8" target="TVoPqE0YGhgHEJRn8iUE-4">
          <mxGeometry relative="1" as="geometry" />
        </mxCell>
        <mxCell id="TVoPqE0YGhgHEJRn8iUE-8" value="SELECT" style="rounded=1;whiteSpace=wrap;html=1;absoluteArcSize=1;arcSize=14;strokeWidth=2;" vertex="1" parent="1">
          <mxGeometry x="160" y="553" width="80" height="60" as="geometry" />
        </mxCell>
        <mxCell id="TVoPqE0YGhgHEJRn8iUE-36" style="edgeStyle=orthogonalEdgeStyle;rounded=0;orthogonalLoop=1;jettySize=auto;html=1;entryX=1;entryY=0.5;entryDx=0;entryDy=0;entryPerimeter=0;" edge="1" parent="1" source="TVoPqE0YGhgHEJRn8iUE-10" target="TVoPqE0YGhgHEJRn8iUE-4">
          <mxGeometry relative="1" as="geometry">
            <Array as="points">
              <mxPoint x="290" y="700" />
            </Array>
          </mxGeometry>
        </mxCell>
        <mxCell id="TVoPqE0YGhgHEJRn8iUE-10" value="INSERT" style="rounded=1;whiteSpace=wrap;html=1;absoluteArcSize=1;arcSize=14;strokeWidth=2;" vertex="1" parent="1">
          <mxGeometry x="254" y="553" width="80" height="60" as="geometry" />
        </mxCell>
        <mxCell id="TVoPqE0YGhgHEJRn8iUE-37" style="edgeStyle=orthogonalEdgeStyle;rounded=0;orthogonalLoop=1;jettySize=auto;html=1;entryX=1;entryY=0.5;entryDx=0;entryDy=0;entryPerimeter=0;" edge="1" parent="1" source="TVoPqE0YGhgHEJRn8iUE-11" target="TVoPqE0YGhgHEJRn8iUE-4">
          <mxGeometry relative="1" as="geometry">
            <Array as="points">
              <mxPoint x="390" y="700" />
            </Array>
          </mxGeometry>
        </mxCell>
        <mxCell id="TVoPqE0YGhgHEJRn8iUE-11" value="UPDATE" style="rounded=1;whiteSpace=wrap;html=1;absoluteArcSize=1;arcSize=14;strokeWidth=2;" vertex="1" parent="1">
          <mxGeometry x="350" y="553" width="80" height="60" as="geometry" />
        </mxCell>
        <mxCell id="TVoPqE0YGhgHEJRn8iUE-38" style="edgeStyle=orthogonalEdgeStyle;rounded=0;orthogonalLoop=1;jettySize=auto;html=1;entryX=1;entryY=0.5;entryDx=0;entryDy=0;entryPerimeter=0;" edge="1" parent="1" source="TVoPqE0YGhgHEJRn8iUE-12" target="TVoPqE0YGhgHEJRn8iUE-4">
          <mxGeometry relative="1" as="geometry">
            <Array as="points">
              <mxPoint x="480" y="700" />
            </Array>
          </mxGeometry>
        </mxCell>
        <mxCell id="TVoPqE0YGhgHEJRn8iUE-12" value="DELETE" style="rounded=1;whiteSpace=wrap;html=1;absoluteArcSize=1;arcSize=14;strokeWidth=2;" vertex="1" parent="1">
          <mxGeometry x="440" y="555" width="80" height="60" as="geometry" />
        </mxCell>
        <mxCell id="TVoPqE0YGhgHEJRn8iUE-61" style="edgeStyle=orthogonalEdgeStyle;rounded=0;orthogonalLoop=1;jettySize=auto;html=1;entryX=0.5;entryY=0;entryDx=0;entryDy=0;" edge="1" parent="1" source="TVoPqE0YGhgHEJRn8iUE-14" target="TVoPqE0YGhgHEJRn8iUE-57">
          <mxGeometry relative="1" as="geometry" />
        </mxCell>
        <mxCell id="TVoPqE0YGhgHEJRn8iUE-14" value="END" style="rounded=1;whiteSpace=wrap;html=1;absoluteArcSize=1;arcSize=14;strokeWidth=2;" vertex="1" parent="1">
          <mxGeometry x="530" y="553" width="80" height="60" as="geometry" />
        </mxCell>
        <mxCell id="TVoPqE0YGhgHEJRn8iUE-28" style="edgeStyle=orthogonalEdgeStyle;rounded=0;orthogonalLoop=1;jettySize=auto;html=1;entryX=0.5;entryY=0;entryDx=0;entryDy=0;entryPerimeter=0;" edge="1" parent="1" source="TVoPqE0YGhgHEJRn8iUE-19" target="TVoPqE0YGhgHEJRn8iUE-21">
          <mxGeometry relative="1" as="geometry" />
        </mxCell>
        <mxCell id="TVoPqE0YGhgHEJRn8iUE-30" style="edgeStyle=orthogonalEdgeStyle;rounded=0;orthogonalLoop=1;jettySize=auto;html=1;" edge="1" parent="1" source="TVoPqE0YGhgHEJRn8iUE-19">
          <mxGeometry relative="1" as="geometry">
            <mxPoint x="294" y="550" as="targetPoint" />
          </mxGeometry>
        </mxCell>
        <mxCell id="TVoPqE0YGhgHEJRn8iUE-19" value="user_choice&lt;br&gt;== 2" style="strokeWidth=2;html=1;shape=mxgraph.flowchart.decision;whiteSpace=wrap;" vertex="1" parent="1">
          <mxGeometry x="254" y="260" width="80" height="80" as="geometry" />
        </mxCell>
        <mxCell id="TVoPqE0YGhgHEJRn8iUE-24" style="edgeStyle=orthogonalEdgeStyle;rounded=0;orthogonalLoop=1;jettySize=auto;html=1;entryX=0.5;entryY=0;entryDx=0;entryDy=0;entryPerimeter=0;exitX=1;exitY=0.5;exitDx=0;exitDy=0;exitPerimeter=0;" edge="1" parent="1" source="TVoPqE0YGhgHEJRn8iUE-20" target="TVoPqE0YGhgHEJRn8iUE-22">
          <mxGeometry relative="1" as="geometry">
            <mxPoint x="534" y="406" as="sourcePoint" />
            <Array as="points">
              <mxPoint x="570" y="420" />
            </Array>
          </mxGeometry>
        </mxCell>
        <mxCell id="TVoPqE0YGhgHEJRn8iUE-32" style="edgeStyle=orthogonalEdgeStyle;rounded=0;orthogonalLoop=1;jettySize=auto;html=1;entryX=0.5;entryY=0;entryDx=0;entryDy=0;" edge="1" parent="1" source="TVoPqE0YGhgHEJRn8iUE-20" target="TVoPqE0YGhgHEJRn8iUE-12">
          <mxGeometry relative="1" as="geometry" />
        </mxCell>
        <mxCell id="TVoPqE0YGhgHEJRn8iUE-20" value="user_choice&lt;br&gt;== 4" style="strokeWidth=2;html=1;shape=mxgraph.flowchart.decision;whiteSpace=wrap;" vertex="1" parent="1">
          <mxGeometry x="440" y="380" width="80" height="80" as="geometry" />
        </mxCell>
        <mxCell id="TVoPqE0YGhgHEJRn8iUE-25" style="edgeStyle=orthogonalEdgeStyle;rounded=0;orthogonalLoop=1;jettySize=auto;html=1;entryX=0.5;entryY=0;entryDx=0;entryDy=0;entryPerimeter=0;" edge="1" parent="1" source="TVoPqE0YGhgHEJRn8iUE-21" target="TVoPqE0YGhgHEJRn8iUE-20">
          <mxGeometry relative="1" as="geometry">
            <Array as="points">
              <mxPoint x="480" y="360" />
            </Array>
          </mxGeometry>
        </mxCell>
        <mxCell id="TVoPqE0YGhgHEJRn8iUE-31" style="edgeStyle=orthogonalEdgeStyle;rounded=0;orthogonalLoop=1;jettySize=auto;html=1;entryX=0.5;entryY=0;entryDx=0;entryDy=0;" edge="1" parent="1" source="TVoPqE0YGhgHEJRn8iUE-21" target="TVoPqE0YGhgHEJRn8iUE-11">
          <mxGeometry relative="1" as="geometry" />
        </mxCell>
        <mxCell id="TVoPqE0YGhgHEJRn8iUE-21" value="user_choice&lt;br&gt;== 3" style="strokeWidth=2;html=1;shape=mxgraph.flowchart.decision;whiteSpace=wrap;" vertex="1" parent="1">
          <mxGeometry x="350" y="320" width="80" height="80" as="geometry" />
        </mxCell>
        <mxCell id="TVoPqE0YGhgHEJRn8iUE-33" style="edgeStyle=orthogonalEdgeStyle;rounded=0;orthogonalLoop=1;jettySize=auto;html=1;entryX=0.5;entryY=0;entryDx=0;entryDy=0;" edge="1" parent="1" source="TVoPqE0YGhgHEJRn8iUE-22" target="TVoPqE0YGhgHEJRn8iUE-14">
          <mxGeometry relative="1" as="geometry" />
        </mxCell>
        <mxCell id="TVoPqE0YGhgHEJRn8iUE-56" style="edgeStyle=orthogonalEdgeStyle;rounded=0;orthogonalLoop=1;jettySize=auto;html=1;entryX=0;entryY=0.5;entryDx=0;entryDy=0;" edge="1" parent="1" source="TVoPqE0YGhgHEJRn8iUE-22" target="TVoPqE0YGhgHEJRn8iUE-55">
          <mxGeometry relative="1" as="geometry" />
        </mxCell>
        <mxCell id="TVoPqE0YGhgHEJRn8iUE-22" value="user_choice&lt;br&gt;== 5" style="strokeWidth=2;html=1;shape=mxgraph.flowchart.decision;whiteSpace=wrap;" vertex="1" parent="1">
          <mxGeometry x="530" y="440" width="80" height="80" as="geometry" />
        </mxCell>
        <mxCell id="TVoPqE0YGhgHEJRn8iUE-42" style="edgeStyle=orthogonalEdgeStyle;rounded=0;orthogonalLoop=1;jettySize=auto;html=1;entryX=0;entryY=0.5;entryDx=0;entryDy=0;entryPerimeter=0;" edge="1" parent="1" source="TVoPqE0YGhgHEJRn8iUE-40" target="TVoPqE0YGhgHEJRn8iUE-2">
          <mxGeometry relative="1" as="geometry">
            <Array as="points">
              <mxPoint x="70" y="240" />
            </Array>
          </mxGeometry>
        </mxCell>
        <mxCell id="TVoPqE0YGhgHEJRn8iUE-40" value="user_choice" style="shape=parallelogram;perimeter=parallelogramPerimeter;whiteSpace=wrap;html=1;fixedSize=1;" vertex="1" parent="1">
          <mxGeometry x="20" y="430" width="120" height="60" as="geometry" />
        </mxCell>
        <mxCell id="TVoPqE0YGhgHEJRn8iUE-43" value="T" style="text;html=1;align=center;verticalAlign=middle;resizable=0;points=[];autosize=1;strokeColor=none;fillColor=none;" vertex="1" parent="1">
          <mxGeometry x="200" y="170" width="30" height="30" as="geometry" />
        </mxCell>
        <mxCell id="TVoPqE0YGhgHEJRn8iUE-44" value="T" style="text;html=1;align=center;verticalAlign=middle;resizable=0;points=[];autosize=1;strokeColor=none;fillColor=none;" vertex="1" parent="1">
          <mxGeometry x="210" y="180" width="30" height="30" as="geometry" />
        </mxCell>
        <mxCell id="TVoPqE0YGhgHEJRn8iUE-45" value="F" style="text;html=1;align=center;verticalAlign=middle;resizable=0;points=[];autosize=1;strokeColor=none;fillColor=none;" vertex="1" parent="1">
          <mxGeometry x="330" y="273" width="30" height="30" as="geometry" />
        </mxCell>
        <mxCell id="TVoPqE0YGhgHEJRn8iUE-46" value="T" style="text;html=1;align=center;verticalAlign=middle;resizable=0;points=[];autosize=1;strokeColor=none;fillColor=none;" vertex="1" parent="1">
          <mxGeometry x="541" y="515" width="30" height="30" as="geometry" />
        </mxCell>
        <mxCell id="TVoPqE0YGhgHEJRn8iUE-47" value="T" style="text;html=1;align=center;verticalAlign=middle;resizable=0;points=[];autosize=1;strokeColor=none;fillColor=none;" vertex="1" parent="1">
          <mxGeometry x="450" y="460" width="30" height="30" as="geometry" />
        </mxCell>
        <mxCell id="TVoPqE0YGhgHEJRn8iUE-48" value="T" style="text;html=1;align=center;verticalAlign=middle;resizable=0;points=[];autosize=1;strokeColor=none;fillColor=none;" vertex="1" parent="1">
          <mxGeometry x="360" y="400" width="30" height="30" as="geometry" />
        </mxCell>
        <mxCell id="TVoPqE0YGhgHEJRn8iUE-49" value="T" style="text;html=1;align=center;verticalAlign=middle;resizable=0;points=[];autosize=1;strokeColor=none;fillColor=none;" vertex="1" parent="1">
          <mxGeometry x="260" y="340" width="30" height="30" as="geometry" />
        </mxCell>
        <mxCell id="TVoPqE0YGhgHEJRn8iUE-50" value="T" style="text;html=1;align=center;verticalAlign=middle;resizable=0;points=[];autosize=1;strokeColor=none;fillColor=none;" vertex="1" parent="1">
          <mxGeometry x="170" y="273" width="30" height="30" as="geometry" />
        </mxCell>
        <mxCell id="TVoPqE0YGhgHEJRn8iUE-51" value="F" style="text;html=1;align=center;verticalAlign=middle;resizable=0;points=[];autosize=1;strokeColor=none;fillColor=none;" vertex="1" parent="1">
          <mxGeometry x="230" y="210" width="30" height="30" as="geometry" />
        </mxCell>
        <mxCell id="TVoPqE0YGhgHEJRn8iUE-52" value="F" style="text;html=1;align=center;verticalAlign=middle;resizable=0;points=[];autosize=1;strokeColor=none;fillColor=none;" vertex="1" parent="1">
          <mxGeometry x="511" y="392" width="30" height="30" as="geometry" />
        </mxCell>
        <mxCell id="TVoPqE0YGhgHEJRn8iUE-53" value="F" style="text;html=1;align=center;verticalAlign=middle;resizable=0;points=[];autosize=1;strokeColor=none;fillColor=none;" vertex="1" parent="1">
          <mxGeometry x="600" y="450" width="30" height="30" as="geometry" />
        </mxCell>
        <mxCell id="TVoPqE0YGhgHEJRn8iUE-54" value="F" style="text;html=1;align=center;verticalAlign=middle;resizable=0;points=[];autosize=1;strokeColor=none;fillColor=none;" vertex="1" parent="1">
          <mxGeometry x="422" y="332" width="30" height="30" as="geometry" />
        </mxCell>
        <mxCell id="TVoPqE0YGhgHEJRn8iUE-59" style="edgeStyle=orthogonalEdgeStyle;rounded=0;orthogonalLoop=1;jettySize=auto;html=1;entryX=0.5;entryY=0;entryDx=0;entryDy=0;" edge="1" parent="1" source="TVoPqE0YGhgHEJRn8iUE-55" target="TVoPqE0YGhgHEJRn8iUE-58">
          <mxGeometry relative="1" as="geometry" />
        </mxCell>
        <mxCell id="TVoPqE0YGhgHEJRn8iUE-55" value="InputMismatch&lt;br&gt;Exception" style="rounded=0;whiteSpace=wrap;html=1;" vertex="1" parent="1">
          <mxGeometry x="660" y="450" width="120" height="60" as="geometry" />
        </mxCell>
        <mxCell id="TVoPqE0YGhgHEJRn8iUE-57" value="end" style="ellipse;whiteSpace=wrap;html=1;aspect=fixed;" vertex="1" parent="1">
          <mxGeometry x="530" y="750" width="80" height="80" as="geometry" />
        </mxCell>
        <mxCell id="TVoPqE0YGhgHEJRn8iUE-60" style="edgeStyle=orthogonalEdgeStyle;rounded=0;orthogonalLoop=1;jettySize=auto;html=1;entryX=1;entryY=0.5;entryDx=0;entryDy=0;" edge="1" parent="1" source="TVoPqE0YGhgHEJRn8iUE-58" target="TVoPqE0YGhgHEJRn8iUE-57">
          <mxGeometry relative="1" as="geometry">
            <Array as="points">
              <mxPoint x="720" y="790" />
            </Array>
          </mxGeometry>
        </mxCell>
        <mxCell id="TVoPqE0YGhgHEJRn8iUE-58" value="errormessage" style="shape=parallelogram;perimeter=parallelogramPerimeter;whiteSpace=wrap;html=1;fixedSize=1;" vertex="1" parent="1">
          <mxGeometry x="660" y="590" width="120" height="60" as="geometry" />
        </mxCell>
      </root>
    </mxGraphModel>
  </diagram>
</mxfile>
